{"glyphs":{":":{"x_min":0,"x_max":144,"ha":144,"o":"m 36 0 l 36 108 l 108 108 l 108 0 z m 36 279 l 36 387 l 108 387 l 108 279 z"},"$":{"x_min":0,"x_max":231,"ha":231,"o":"m 22 58 l 22 299 l 98 299 l 98 83 q 98 77 103 71 q 108 65 116 65 q 124 65 129 70 q 134 76 134 83 l 134 256 q 134 277 115 310 l 55 411 l 33 446 l 27 459 q 24 467 23 477 q 22 487 22 508 l 22 662 q 22 692 47 708 q 65 720 80 720 l 97 720 l 97 806 l 133 806 l 133 720 l 152 720 q 165 720 187 706 q 209 692 209 662 l 209 458 l 134 458 l 134 636 q 134 642 128 648 q 123 655 115 655 q 109 655 104 650 q 98 644 98 635 l 98 517 q 98 483 103 473 l 119 449 l 185 347 q 203 321 206 314 q 208 306 208 280 l 209 255 l 209 58 q 209 20 171 6 l 151 0 l 133 0 l 133 -85 l 95 -85 l 95 0 l 79 0 q 66 0 46 12 q 22 30 22 58 z"},"?":{"x_min":0,"x_max":224,"ha":224,"o":"m 79 0 l 79 108 l 151 108 l 151 0 z m 22 480 l 22 662 q 22 716 77 725 q 103 728 122 728 q 167 728 184 710 q 202 691 202 648 l 202 496 q 202 463 200 446 q 198 429 193 414 l 165 329 q 155 299 153 286 q 151 274 151 238 l 151 180 l 79 180 l 79 239 l 79 285 q 80 300 83 309 q 86 318 87 323 l 125 440 q 130 455 130 478 l 130 518 l 130 638 q 130 647 124 652 q 119 658 112 658 q 104 658 99 652 q 94 645 94 638 l 94 480 z"},"a":{"x_min":0,"x_max":201,"ha":201,"o":"m 14 49 l 14 309 q 14 332 26 344 l 28 346 l 32 349 l 103 401 l 111 406 q 115 412 115 414 l 115 512 q 115 527 99 525 q 86 525 86 514 l 86 417 l 14 417 l 14 526 q 14 552 27 564 q 40 576 62 580 q 83 583 101 583 q 114 583 121 582 q 161 576 174 565 q 187 554 187 526 l 187 0 l 122 0 l 122 20 q 109 7 94 0 q 79 -7 62 -7 q 23 -7 16 27 z m 115 65 l 115 321 q 86 306 86 271 l 86 66 q 86 55 99 53 q 115 51 115 65 z"},"L":{"x_min":0,"x_max":141,"ha":141,"o":"m 18 0 l 18 720 l 94 720 l 94 65 l 148 65 l 148 0 z"},"3":{"x_min":0,"x_max":231,"ha":231,"o":"m 22 58 l 22 297 l 98 297 l 98 87 l 114 64 l 134 88 l 134 313 q 134 337 129 344 q 124 352 107 352 l 66 352 l 66 418 l 106 418 q 122 418 128 426 q 134 435 134 459 l 134 624 l 118 655 l 98 628 l 98 481 l 22 481 l 22 662 q 22 727 115 727 q 174 727 192 714 q 209 702 209 662 l 209 479 q 209 389 141 381 q 152 381 162 376 q 173 371 182 362 q 209 335 209 308 l 209 58 q 209 22 188 8 q 168 -7 114 -7 q 22 -7 22 58 z"},";":{"x_min":0,"x_max":145,"ha":145,"o":"m 36 279 l 36 387 l 108 387 l 108 279 z m -11 -72 l 37 108 l 109 108 l 61 -72 z"},"J":{"x_min":0,"x_max":223,"ha":223,"o":"m 18 58 l 18 297 l 94 297 l 94 86 q 94 78 100 72 q 105 65 112 65 q 119 65 124 72 q 130 79 130 86 l 130 720 l 205 720 l 205 58 q 205 -7 112 -7 q 60 -7 39 8 q 18 23 18 58 z"},"V":{"x_min":0,"x_max":211,"ha":211,"o":"m -4 720 l 72 720 l 105 192 l 139 720 l 215 720 l 169 0 l 42 0 z"},"7":{"x_min":0,"x_max":231,"ha":231,"o":"m 15 479 l 15 720 l 209 720 l 209 629 l 121 0 l 44 0 l 137 655 l 91 655 l 91 479 z"},"S":{"x_min":0,"x_max":223,"ha":223,"o":"m 18 58 l 18 299 l 94 299 l 94 83 q 94 77 99 71 q 104 65 112 65 q 120 65 125 70 q 130 76 130 83 l 130 256 q 130 277 111 310 l 51 411 l 29 446 l 23 459 q 20 467 19 477 q 18 487 18 508 l 18 662 q 18 696 40 712 q 61 727 113 727 q 162 727 184 712 q 205 696 205 662 l 205 458 l 130 458 l 130 636 q 130 642 124 648 q 119 655 111 655 q 105 655 100 650 q 94 644 94 635 l 94 517 q 94 483 99 473 l 115 449 l 181 347 q 199 321 202 314 q 204 306 204 280 l 205 255 l 205 58 q 205 24 184 8 q 163 -7 111 -7 q 63 -7 40 8 q 18 24 18 58 z"},"Z":{"x_min":0,"x_max":201,"ha":201,"o":"m 7 0 l 7 65 l 117 655 l 7 655 l 7 720 l 194 720 l 194 655 l 86 65 l 194 65 l 194 0 z"},"x":{"x_min":0,"x_max":204,"ha":204,"o":"m 0 0 l 37 329 l 4 576 l 77 576 l 102 391 l 127 576 l 200 576 l 167 329 l 204 0 l 125 0 l 106 270 l 79 0 z"},")":{"x_min":0,"x_max":147,"ha":147,"o":"m 0 0 l 0 72 q 39 72 39 119 l 39 601 q 39 649 11 649 q 4 649 0 648 l 0 720 l 14 720 q 46 720 70 702 q 94 683 106 644 q 111 629 111 615 l 111 113 q 111 52 75 23 q 47 0 13 0 z"},"&":{"x_min":0,"x_max":280,"ha":280,"o":"m 22 95 l 22 264 q 22 296 33 330 q 44 364 64 390 l 62 400 l 57 418 q 51 445 48 463 q 46 481 46 501 l 46 586 q 46 656 88 664 q 129 671 158 671 q 200 671 216 652 q 233 632 233 588 l 233 504 q 233 468 228 452 q 223 435 206 417 l 160 363 l 182 309 l 218 382 l 258 385 l 258 297 l 208 192 l 257 94 l 257 0 l 203 0 l 185 46 q 183 33 176 21 q 168 9 153 2 q 138 -4 112 -4 q 93 -4 69 0 q 45 5 34 26 q 22 46 22 95 z m 157 458 l 157 593 l 139 616 l 121 594 l 121 455 l 139 433 z m 152 193 l 108 299 l 103 311 l 98 294 l 98 73 l 107 68 z"},"_":{"x_min":0,"x_max":562,"ha":562,"o":"m -7 0 l -7 36 l 569 36 l 569 0 z"},"v":{"x_min":0,"x_max":190,"ha":190,"o":"m 0 576 l 72 576 l 95 126 l 118 576 l 190 576 l 158 0 l 32 0 z"},"O":{"x_min":0,"x_max":223,"ha":223,"o":"m 18 58 l 18 662 q 18 696 40 712 q 61 727 112 727 q 165 727 185 712 q 205 697 205 662 l 205 58 q 205 24 183 8 q 161 -7 109 -7 q 61 -7 40 9 q 18 25 18 58 z m 130 75 l 130 645 q 130 653 124 658 q 119 664 112 664 q 106 664 99 659 q 94 652 94 645 l 94 73 q 94 55 111 57 q 130 57 130 75 z"},"(":{"x_min":0,"x_max":147,"ha":147,"o":"m 36 105 l 36 607 q 36 668 72 697 q 100 720 134 720 l 147 720 l 147 648 q 108 648 108 601 l 108 119 q 108 71 136 71 q 143 71 147 72 l 147 0 l 133 0 q 101 0 77 19 q 53 38 40 76 q 36 94 36 105 z"},"C":{"x_min":0,"x_max":223,"ha":223,"o":"m 18 58 l 18 662 q 18 698 38 712 q 57 727 110 727 q 163 727 184 712 q 205 697 205 662 l 205 485 l 129 485 l 129 640 q 129 655 113 655 q 105 656 100 651 q 94 646 94 637 l 94 87 l 112 65 l 130 87 l 130 296 l 205 296 l 205 58 q 205 25 184 8 q 163 -8 117 -8 q 99 -8 76 -5 q 18 4 18 58 z"},"W":{"x_min":0,"x_max":389,"ha":389,"o":"m -4 720 l 72 720 l 109 256 l 135 720 l 254 720 l 280 256 l 317 720 l 393 720 l 335 0 l 219 0 l 194 455 l 170 0 l 53 0 z"},"A":{"x_min":0,"x_max":225,"ha":225,"o":"m -7 0 l 46 720 l 179 720 l 232 0 l 156 0 l 142 184 l 82 184 l 69 0 z m 112 629 l 85 250 l 140 250 z"},"f":{"x_min":0,"x_max":125,"ha":125,"o":"m -4 511 l -4 576 l 17 576 l 17 644 q 17 677 21 688 q 25 700 40 710 q 55 720 70 720 l 129 720 l 129 661 l 113 660 q 89 660 89 631 l 89 576 l 129 576 l 129 511 l 89 511 l 89 0 l 17 0 l 17 511 z"},"Q":{"x_min":0,"x_max":223,"ha":223,"o":"m 18 58 l 18 663 q 18 717 74 725 q 100 728 118 728 q 164 728 184 712 q 205 695 205 662 l 205 163 q 205 114 194 92 q 183 70 158 65 l 212 65 l 212 0 l 112 0 l 74 0 q 18 0 18 58 z m 130 87 l 130 629 q 130 637 124 642 q 119 648 111 648 q 104 648 99 642 q 94 636 94 628 l 94 87 l 111 65 z"},"w":{"x_min":0,"x_max":352,"ha":352,"o":"m 0 576 l 72 576 l 93 209 l 118 576 l 235 576 l 259 209 l 280 576 l 352 576 l 315 0 l 205 0 l 176 425 l 147 0 l 37 0 z"},"-":{"x_min":0,"x_max":233,"ha":233,"o":"m 22 269 l 22 341 l 211 341 l 211 269 z"},"E":{"x_min":0,"x_max":183,"ha":183,"o":"m 18 0 l 18 720 l 176 720 l 176 655 l 94 655 l 94 418 l 173 418 l 173 354 l 94 354 l 94 65 l 176 65 l 176 0 z"},"s":{"x_min":0,"x_max":201,"ha":201,"o":"m 14 50 l 14 215 l 86 215 l 86 65 q 86 51 101 51 q 115 51 115 64 l 115 197 q 115 203 109 217 l 98 233 l 37 327 l 25 345 l 21 352 q 14 367 14 377 l 14 526 q 14 553 34 568 q 55 583 97 583 q 187 583 187 518 l 187 397 l 115 397 l 115 511 q 115 525 100 525 q 86 523 86 509 l 86 392 l 88 377 l 95 367 l 165 263 l 175 248 q 181 241 183 231 q 187 222 187 205 l 187 50 q 187 25 172 12 q 158 -1 122 -5 q 114 -6 111 -6 q 101 -7 94 -7 q 55 -7 34 8 q 14 24 14 50 z"},"l":{"x_min":0,"x_max":100,"ha":100,"o":"m 14 0 l 14 720 l 86 720 l 86 0 z"},"8":{"x_min":0,"x_max":231,"ha":231,"o":"m 22 58 l 22 287 l 24 307 q 31 332 46 350 q 61 367 82 374 q 59 374 44 392 q 30 409 24 447 l 22 472 l 22 662 q 22 696 44 712 q 66 727 118 727 q 170 727 190 712 q 209 698 209 662 l 209 471 q 209 376 153 376 l 167 371 q 190 360 200 342 q 209 323 209 288 l 209 58 q 209 22 189 8 q 169 -7 115 -7 q 64 -7 43 8 q 22 23 22 58 z m 128 422 q 134 428 134 438 l 134 633 q 134 643 128 649 q 123 655 115 655 q 108 655 103 649 q 98 643 98 635 l 98 433 q 98 425 103 420 q 108 415 114 415 q 121 415 128 422 z m 128 69 q 134 75 134 83 l 134 326 q 134 335 128 341 q 123 347 116 347 q 108 347 103 340 q 98 333 98 324 l 98 83 q 98 75 103 69 q 108 63 116 63 q 123 63 128 69 z"},"e":{"x_min":0,"x_max":201,"ha":201,"o":"m 14 50 l 14 526 q 14 553 36 568 q 58 583 104 583 q 145 583 166 568 q 187 552 187 526 l 187 282 l 86 282 l 86 64 q 86 49 102 51 q 115 53 115 64 l 115 239 l 187 238 l 187 50 q 187 23 166 8 q 145 -7 103 -7 q 59 -7 36 8 q 14 24 14 50 z m 115 502 q 115 513 103 515 q 96 516 91 512 q 86 508 86 501 l 86 348 l 115 348 z"},"b":{"x_min":0,"x_max":201,"ha":201,"o":"m 14 0 l 14 720 l 86 720 l 86 562 q 99 584 129 584 q 138 584 149 581 q 187 573 187 526 l 187 50 q 187 -9 136 -9 q 131 -9 119 -7 q 92 -1 79 22 l 79 0 z m 115 67 l 115 512 q 115 524 102 526 q 86 528 86 513 l 86 66 q 86 50 102 52 q 115 54 115 67 z"},"%":{"x_min":0,"x_max":400,"ha":400,"o":"m 120 0 l 238 720 l 279 720 l 161 0 z m 22 340 l 22 667 q 22 696 33 709 q 44 722 72 727 l 97 727 q 146 721 146 668 l 146 340 q 146 287 99 280 q 87 278 81 278 q 52 278 37 294 q 22 310 22 340 z m 253 52 l 253 378 q 253 407 264 420 q 275 433 298 436 q 321 440 328 439 q 378 432 378 379 l 378 52 q 378 -2 330 -9 q 324 -10 313 -10 q 253 -10 253 52 z m 94 333 q 98 339 98 344 l 98 663 l 85 680 l 71 662 l 71 344 q 71 340 72 337 q 75 334 75 333 q 78 329 84 329 q 90 329 94 333 z m 325 45 q 329 51 329 56 l 329 374 l 316 391 l 302 374 l 302 55 q 302 49 307 44 q 311 40 316 40 q 322 40 325 45 z"},"m":{"x_min":0,"x_max":302,"ha":302,"o":"m 14 0 l 14 576 l 79 576 l 79 554 q 93 577 108 580 q 123 583 130 584 q 138 585 143 585 q 172 585 188 562 q 198 577 212 580 q 226 584 241 584 q 288 584 288 528 l 288 0 l 216 0 l 216 510 q 216 516 211 521 q 208 525 201 525 q 195 525 191 521 q 187 517 187 510 l 187 0 l 115 0 l 115 508 q 115 511 114 514 q 112 518 111 519 q 106 525 100 525 q 97 525 91 521 q 86 514 86 508 l 86 0 z"},",":{"x_min":0,"x_max":128,"ha":128,"o":"m -14 -72 l 34 108 l 106 108 l 58 -72 z"},"n":{"x_min":0,"x_max":201,"ha":201,"o":"m 14 0 l 14 576 l 79 576 l 79 554 q 85 567 96 575 q 106 583 121 585 q 148 589 166 576 q 184 562 186 537 l 187 529 l 187 520 l 187 0 l 115 0 l 115 511 q 115 523 102 525 q 86 527 86 511 l 86 0 z"},"h":{"x_min":0,"x_max":201,"ha":201,"o":"m 14 0 l 14 720 l 86 720 l 86 562 q 102 588 134 585 q 181 585 186 537 l 187 529 l 187 520 l 187 0 l 115 0 l 115 511 q 115 523 102 525 q 86 527 86 511 l 86 0 z"},"z":{"x_min":0,"x_max":156,"ha":156,"o":"m 7 511 l 7 576 l 149 576 l 149 518 l 82 65 l 149 65 l 149 0 l 7 0 l 7 64 l 74 511 z"},"B":{"x_min":0,"x_max":223,"ha":223,"o":"m 18 0 l 18 720 l 111 720 l 148 720 q 205 720 205 664 l 205 433 q 205 403 194 390 q 184 378 148 366 l 131 363 l 145 361 q 182 352 194 340 q 205 329 205 301 l 205 58 q 205 30 192 17 q 179 4 147 0 l 110 0 z m 130 100 l 130 314 q 130 332 109 332 l 94 332 l 94 65 l 107 64 q 130 64 130 100 z m 130 427 l 130 621 q 130 637 123 645 q 116 653 104 653 l 94 653 l 94 396 l 107 396 q 130 396 130 427 z"},"K":{"x_min":0,"x_max":216,"ha":216,"o":"m 18 0 l 18 720 l 94 720 l 94 482 l 143 720 l 221 720 l 152 405 l 223 0 l 140 0 l 94 317 l 94 0 z"},"R":{"x_min":0,"x_max":223,"ha":223,"o":"m 18 0 l 18 720 l 111 720 l 147 720 q 179 720 192 707 q 205 694 205 662 l 205 460 q 205 397 151 376 l 135 371 q 147 371 152 369 q 205 357 205 299 l 205 59 l 205 35 l 206 32 q 207 16 214 0 l 137 0 q 130 12 130 34 l 130 308 q 130 337 109 337 l 94 337 l 94 0 z m 130 432 l 130 628 q 130 655 112 655 l 94 655 l 94 404 l 107 404 q 130 404 130 432 z"},"T":{"x_min":0,"x_max":191,"ha":191,"o":"m -7 655 l -7 720 l 198 720 l 198 655 l 133 655 l 133 0 l 58 0 l 58 655 z"},"P":{"x_min":0,"x_max":223,"ha":223,"o":"m 18 0 l 18 720 l 110 720 l 146 720 q 205 720 205 662 l 205 327 q 205 297 192 284 q 180 271 147 266 l 111 266 l 94 266 l 94 0 z m 130 364 l 130 635 l 128 641 q 122 655 113 655 l 94 655 l 94 335 l 110 335 q 130 335 130 364 z"},"t":{"x_min":0,"x_max":118,"ha":118,"o":"m -4 511 l -4 576 l 18 576 l 18 648 l 90 648 l 90 576 l 122 576 l 122 511 l 90 511 l 90 90 q 90 65 107 65 l 122 65 l 122 0 l 80 0 q 46 0 32 10 q 19 19 19 45 l 18 54 l 18 511 z"},"M":{"x_min":0,"x_max":390,"ha":390,"o":"m 18 0 l 18 720 l 129 720 l 196 261 l 261 720 l 372 720 l 372 0 l 297 0 l 297 469 l 227 0 l 164 0 l 94 469 l 94 0 z"},"g":{"x_min":0,"x_max":203,"ha":203,"o":"m 14 -65 l 14 -26 l 86 -26 l 86 -53 q 86 -68 104 -65 q 117 -63 117 -52 l 117 22 q 107 9 92 4 q 76 0 75 0 q 70 -1 61 -1 q 27 -1 19 33 l 16 49 l 16 533 q 16 548 25 560 q 39 583 69 583 q 80 583 95 580 q 110 576 124 554 l 124 576 l 189 576 l 189 -60 q 189 -91 170 -107 q 151 -123 109 -123 q 103 -123 95 -122 q 87 -121 82 -121 q 43 -116 28 -104 q 14 -93 14 -65 z m 117 65 l 117 513 q 117 519 112 523 q 107 527 101 526 q 88 524 88 512 l 88 64 q 88 53 101 51 q 117 51 117 65 z"},"j":{"x_min":0,"x_max":102,"ha":102,"o":"m 16 615 l 16 720 l 88 720 l 88 615 z m -13 -115 l -13 -51 q -3 -49 4 -44 q 16 -35 16 -24 l 16 576 l 88 576 l 88 -27 q 88 -69 66 -92 q 44 -115 -2 -115 z"},"i":{"x_min":0,"x_max":100,"ha":100,"o":"m 14 615 l 14 720 l 86 720 l 86 615 z m 14 0 l 14 576 l 86 576 l 86 0 z"},"y":{"x_min":0,"x_max":202,"ha":202,"o":"m 0 576 l 72 576 l 104 151 l 126 576 l 198 576 l 165 -46 q 165 -86 150 -100 q 134 -115 88 -115 l 77 -115 l 18 -115 l 18 -50 l 51 -50 l 73 -51 q 95 -51 95 -33 l 95 0 l 78 0 q 52 0 45 5 q 38 10 38 31 z"},".":{"x_min":0,"x_max":116,"ha":116,"o":"m 22 0 l 22 108 l 94 108 l 94 0 z"},"p":{"x_min":0,"x_max":201,"ha":201,"o":"m 14 -115 l 14 576 l 79 576 l 79 554 q 92 577 119 583 q 133 585 137 585 q 187 585 187 526 l 187 50 q 187 4 148 -5 q 137 -8 127 -8 q 99 -8 86 14 l 86 -115 z m 115 64 l 115 509 q 115 522 102 524 q 86 526 86 510 l 86 63 q 86 48 102 50 q 115 52 115 64 z"},"X":{"x_min":0,"x_max":212,"ha":212,"o":"m -4 0 l 46 374 l 1 720 l 78 720 l 106 489 l 134 720 l 211 720 l 166 374 l 216 0 l 140 0 l 111 310 l 72 0 z"},"*":{"x_min":0,"x_max":278,"ha":278,"o":"m 22 636 l 50 687 l 110 648 l 110 720 l 167 720 l 167 649 l 223 689 l 254 636 l 194 599 l 256 574 l 228 529 l 168 557 l 168 489 l 109 487 l 109 558 l 49 524 l 23 573 l 77 602 z"},"Y":{"x_min":0,"x_max":226,"ha":226,"o":"m -7 720 l 69 720 l 113 424 l 157 720 l 233 720 l 151 259 l 151 0 l 75 0 l 75 259 z"},"c":{"x_min":0,"x_max":201,"ha":201,"o":"m 14 50 l 14 526 q 14 545 29 562 q 39 571 46 575 q 63 584 92 584 q 108 584 132 580 q 157 577 172 562 q 187 548 187 526 l 187 381 l 115 381 l 115 515 q 115 529 98 527 q 86 525 86 514 l 86 64 q 86 53 99 51 q 115 49 115 65 l 115 246 l 187 246 l 187 50 q 187 23 166 8 q 146 -8 104 -8 q 88 -8 68 -5 q 14 5 14 50 z"},"!":{"x_min":0,"x_max":151,"ha":151,"o":"m 40 0 l 40 108 l 112 108 l 112 0 z m 36 720 l 115 720 l 104 180 l 47 180 z"},"/":{"x_min":0,"x_max":220,"ha":220,"o":"m 22 0 l 139 720 l 198 720 l 81 0 z"},"6":{"x_min":0,"x_max":231,"ha":231,"o":"m 22 58 l 22 662 q 22 695 44 711 q 66 727 116 727 q 171 727 190 713 q 209 699 209 662 l 209 479 l 134 479 l 134 635 q 134 644 128 650 q 123 656 115 656 q 109 656 104 650 q 98 644 98 634 l 98 395 q 106 421 125 426 q 144 432 156 432 q 181 432 195 414 q 209 396 209 363 l 209 58 q 209 2 151 -5 q 128 -8 110 -8 q 22 -8 22 58 z m 134 91 l 134 322 l 114 346 l 98 324 l 98 88 l 114 64 z"},"r":{"x_min":0,"x_max":201,"ha":201,"o":"m 14 0 l 14 576 l 79 576 l 79 554 q 92 569 110 576 q 128 584 141 584 q 181 584 186 542 l 187 530 l 187 291 l 115 291 l 115 509 q 115 516 110 521 q 106 525 100 525 q 93 525 90 519 q 86 515 86 508 l 86 0 z"},"2":{"x_min":0,"x_max":231,"ha":231,"o":"m 19 0 l 19 80 l 120 455 l 130 488 q 136 509 136 515 l 136 633 l 117 655 l 100 632 l 100 479 l 24 479 l 24 655 q 24 694 45 710 q 66 727 119 727 q 171 727 191 712 q 211 697 211 662 l 211 554 l 211 521 l 211 515 q 210 507 210 504 q 209 495 206 485 l 93 65 l 212 65 l 212 0 z"},"9":{"x_min":0,"x_max":231,"ha":231,"o":"m 22 357 l 22 662 q 22 718 80 725 q 103 728 121 728 q 209 728 209 662 l 209 58 q 209 25 187 9 q 165 -7 115 -7 q 60 -7 41 7 q 22 21 22 58 l 22 241 l 98 241 l 98 85 q 98 75 103 70 q 108 64 116 64 q 123 64 128 70 q 134 76 134 86 l 134 325 q 125 298 99 292 q 87 288 75 288 q 50 288 36 306 q 22 324 22 357 z m 134 396 l 134 632 l 117 656 l 98 629 l 98 398 l 117 374 z"}," ":{"x_min":0,"x_max":290,"ha":290,"o":""},"I":{"x_min":0,"x_max":112,"ha":112,"o":"m 18 0 l 18 720 l 94 720 l 94 0 z"},"H":{"x_min":0,"x_max":223,"ha":223,"o":"m 18 0 l 18 720 l 94 720 l 94 422 l 130 422 l 130 720 l 205 720 l 205 0 l 130 0 l 130 357 l 94 357 l 94 0 z"},"4":{"x_min":0,"x_max":231,"ha":231,"o":"m 0 122 l 0 187 l 99 720 l 195 720 l 195 187 l 213 187 l 213 122 l 195 122 l 195 0 l 120 0 l 120 122 z m 120 524 l 69 187 l 120 187 z"},"D":{"x_min":0,"x_max":223,"ha":223,"o":"m 18 0 l 18 720 l 110 720 l 148 720 q 205 720 205 662 l 205 58 q 205 28 193 16 q 181 4 146 0 l 111 0 z m 130 95 l 130 627 q 130 655 109 655 l 94 655 l 94 65 l 110 65 q 130 65 130 95 z"},"0":{"x_min":0,"x_max":231,"ha":231,"o":"m 22 58 l 22 662 q 22 728 110 728 q 129 728 152 725 q 209 717 209 662 l 209 58 q 209 1 153 -5 q 129 -8 111 -8 q 22 -8 22 58 z m 128 70 q 134 78 134 87 l 134 632 l 116 655 l 98 634 l 98 82 q 98 74 103 68 q 108 63 115 63 q 123 63 128 70 z"},"F":{"x_min":0,"x_max":176,"ha":176,"o":"m 18 0 l 18 720 l 176 720 l 176 655 l 94 655 l 94 403 l 173 403 l 173 338 l 94 338 l 94 0 z"},"`":{"x_min":0,"x_max":115,"ha":115,"o":"m -60 720 l 9 720 l 86 620 l 34 620 z"},"k":{"x_min":0,"x_max":200,"ha":200,"o":"m 14 0 l 14 720 l 86 720 l 86 385 l 130 576 l 204 576 l 152 336 l 207 0 l 127 0 l 86 273 l 86 0 z"},"u":{"x_min":0,"x_max":201,"ha":201,"o":"m 14 56 l 14 576 l 86 576 l 86 65 q 86 53 99 51 q 115 49 115 65 l 115 576 l 187 576 l 187 0 l 122 0 l 122 22 q 116 9 106 1 q 95 -7 80 -9 q 53 -13 35 0 q 17 14 15 39 l 14 47 z"},"U":{"x_min":0,"x_max":223,"ha":223,"o":"m 18 58 l 18 720 l 94 720 l 94 87 q 94 78 100 72 q 105 65 112 65 q 119 65 124 71 q 130 77 130 86 l 130 720 l 205 720 l 205 58 q 205 24 183 8 q 161 -7 109 -7 q 58 -7 38 8 q 18 23 18 58 z"},"o":{"x_min":0,"x_max":201,"ha":201,"o":"m 14 50 l 14 526 q 14 553 40 570 q 58 583 97 583 q 104 583 112 582 q 121 581 134 580 q 146 578 157 570 q 187 552 187 526 l 187 50 q 187 23 164 8 q 142 -7 96 -7 q 55 -7 34 8 q 14 24 14 50 z m 115 63 l 115 511 q 115 525 101 525 q 86 525 86 511 l 86 63 q 86 51 101 51 q 115 53 115 63 z"},"N":{"x_min":0,"x_max":239,"ha":239,"o":"m 18 0 l 18 720 l 76 720 l 145 376 l 145 720 l 221 720 l 221 0 l 166 0 l 94 352 l 94 0 z"},"G":{"x_min":0,"x_max":223,"ha":223,"o":"m 18 58 l 18 662 q 18 693 32 706 q 47 720 87 726 q 93 727 106 727 q 119 727 125 726 q 173 719 189 706 q 205 693 205 662 l 205 478 l 130 478 l 130 633 q 130 641 124 648 q 119 655 112 655 q 105 655 100 650 q 94 644 94 635 l 94 86 q 94 76 99 70 q 104 65 113 65 q 119 65 124 72 q 130 78 130 85 l 130 281 l 111 281 l 111 345 l 205 345 l 205 0 l 169 0 l 155 26 q 138 0 114 -4 q 91 -8 75 -8 q 43 -8 30 8 q 18 23 18 58 z"},"q":{"x_min":0,"x_max":201,"ha":201,"o":"m 14 50 l 14 526 q 14 585 65 585 q 70 585 82 582 q 95 580 105 573 q 115 566 122 554 l 122 576 l 187 576 l 187 -115 l 115 -115 l 115 14 q 101 -7 67 -7 q 14 -7 14 50 z m 115 63 l 115 510 q 115 526 99 524 q 86 522 86 509 l 86 64 q 86 52 99 50 q 115 48 115 63 z"},"d":{"x_min":0,"x_max":201,"ha":201,"o":"m 14 50 l 14 526 q 14 572 53 581 q 65 584 74 584 q 100 584 115 562 l 115 720 l 187 720 l 187 0 l 122 0 l 122 22 q 110 0 82 -7 q 68 -9 63 -9 q 14 -9 14 50 z m 115 66 l 115 513 q 115 528 99 526 q 86 524 86 512 l 86 67 q 86 54 99 52 q 115 50 115 66 z"},"1":{"x_min":0,"x_max":231,"ha":231,"o":"m 28 497 l 28 562 q 51 571 64 592 q 78 612 87 657 q 91 677 92 686 q 92 695 92 700 q 92 713 91 720 l 153 720 l 153 0 l 78 0 l 78 497 z"},"5":{"x_min":0,"x_max":231,"ha":231,"o":"m 20 58 l 20 287 l 96 287 l 96 78 l 114 57 l 132 78 l 132 386 l 113 410 l 97 389 l 97 341 l 20 341 l 20 720 l 211 720 l 211 655 l 96 655 l 96 466 q 109 484 126 488 q 143 493 153 493 q 207 493 207 429 l 207 58 q 207 30 192 12 q 177 -6 150 -6 q 73 -6 46 6 q 20 19 20 58 z"}}}
